<?xml version="1.0" encoding="utf-8"?>
<!-- Generator: Adobe Illustrator 22.0.1, SVG Export Plug-In . SVG Version: 6.00 Build 0)  -->
<svg version="1.1" id="Layer_1" xmlns="http://www.w3.org/2000/svg" xmlns:xlink="http://www.w3.org/1999/xlink" x="0px" y="0px"
	 viewBox="0 0 2205.9 1121.9" style="enable-background:new 0 0 2205.9 1121.9;" xml:space="preserve">
<style type="text/css">
	.st0{fill:none;stroke:#000000;stroke-width:23;stroke-miterlimit:10;}
	.st1{font-family:'Slimlines';}
	.st2{font-size:42.5992px;}
	.st3{fill:none;stroke:#000000;stroke-width:157;stroke-miterlimit:10;}
	.st4{font-size:261.889px;}
</style>
<g>
	<path d="M1143.8,569.3c0,3.2-1.3,6-3.4,8.1c-2,2-4.7,3.2-7.6,3.4c-0.2,0-0.3,0-0.5,0h-241c-4.1,0-7.8-2.2-9.8-5.5
		c-1.1-1.8-1.7-3.8-1.7-6c0-2.5,0.8-4.8,2.1-6.7c0.4-0.5,0.8-1,1.2-1.5c2.1-2.1,5-3.4,8.1-3.4h241c0.2,0,0.3,0,0.5,0
		C1138.9,558.1,1143.8,563.1,1143.8,569.3z"/>
</g>
<g>
	<path d="M1132.3,557.8c0.2,0.2,0.3,0.3,0.5,0.5v53.5c0,5.5-5.3,10-11.7,10h-0.5c-6.5,0-11.7-4.5-11.7-10v-54H1132.3z"/>
</g>
<g>
	<path d="M1104.8,557.8v35.5c0,6.4-5.1,11.5-11.5,11.5h-1c-6.4,0-11.5-5.1-11.5-11.5v-35.5H1104.8z"/>
</g>
<g>
	<path d="M952.8,584.8v-35.5c0-6.4,5.1-11.5,11.5-11.5h1c6.4,0,11.5,5.1,11.5,11.5v35.5H952.8z"/>
</g>
<g>
	<path d="M976.8,552.8v35.5c0,6.4-5.1,11.5-11.5,11.5h-1c-6.4,0-11.5-5.1-11.5-11.5v-35.5H976.8z"/>
</g>
<ellipse class="st0" cx="916.3" cy="532.8" rx="34" ry="35.5"/>
<ellipse class="st0" cx="916.3" cy="605.8" rx="34" ry="35.5"/>
<ellipse class="st0" cx="916.3" cy="605.8" rx="34" ry="35.5"/>
<ellipse class="st0" cx="856.3" cy="570.8" rx="34" ry="35.5"/>
<text transform="matrix(1 0 0 1 976.4175 548.6218)" class="st1 st2">PRYCE</text>
<text transform="matrix(1 0 0 1 1067.4176 548.6218)" class="st1 st2">.Dzn</text>
<g>
	<path d="M2161.8,568.9c0,19.5-7.9,37.2-20.7,50c-12.1,12.1-28.6,19.9-46.9,20.7c-1,0.1-2,0.1-3.1,0.1H609.4
		c-25.4,0-47.6-13.4-60.1-33.5c-6.8-10.8-10.6-23.5-10.6-37.2c0-15.3,4.9-29.4,13.2-41c2.3-3.2,4.8-6.2,7.6-9
		c12.8-12.8,30.4-20.7,50-20.7h1481.6c1,0,2.1,0,3.1,0.1C2131.7,499.9,2161.8,530.9,2161.8,568.9z"/>
</g>
<g>
	<path d="M2091.1,498.2c1.2,1.2,1.9,1.9,3.1,3.1v328.6c0,34.1-32.3,61.8-72.2,61.8h-3.1c-39.9,0-72.2-27.7-72.2-61.8V498.2H2091.1z"
		/>
</g>
<g>
	<path d="M1922,498.2v218.2c0,39-31.7,70.7-70.7,70.7h-6.1c-39,0-70.7-31.7-70.7-70.7V498.2H1922z"/>
</g>
<g>
	<path d="M987.5,664.2V446c0-39,31.7-70.7,70.7-70.7h6.1c39,0,70.7,31.7,70.7,70.7v218.2H987.5z"/>
</g>
<g>
	<path d="M1135.1,467.5v218.2c0,39-31.7,70.7-70.7,70.7h-6.1c-39,0-70.7-31.7-70.7-70.7V467.5H1135.1z"/>
</g>
<ellipse class="st3" cx="763.1" cy="344.5" rx="209" ry="218.2"/>
<ellipse class="st0" cx="763.1" cy="793.3" rx="209" ry="218.2"/>
<ellipse class="st3" cx="763.1" cy="793.3" rx="209" ry="218.2"/>
<ellipse class="st3" cx="394.3" cy="578.1" rx="209" ry="218.2"/>
<text transform="matrix(1 0 0 1 1133.0372 441.9099)" class="st1 st4">PRYCE</text>
<text transform="matrix(1 0 0 1 1692.4816 441.9099)" class="st1 st4">.Dzn</text>
</svg>
